<svg width="95" height="95" viewBox="0 0 95 95" fill="none" xmlns="http://www.w3.org/2000/svg">
<path d="M58.6328 12.6172H8.16406V74.2188H58.6328V12.6172Z" fill="white"/>
<path d="M58.6328 12.6172H8.16406V74.2188H58.6328V12.6172Z" stroke="#242C88" stroke-width="2" stroke-miterlimit="10" stroke-linecap="round" stroke-linejoin="round"/>
<path d="M24.4922 34.1406H17.0703C16.2539 34.1406 15.5859 33.4727 15.5859 32.6562V25.2344C15.5859 24.418 16.2539 23.75 17.0703 23.75H24.4922C25.3086 23.75 25.9766 24.418 25.9766 25.2344V32.6562C25.9766 33.4727 25.3086 34.1406 24.4922 34.1406Z" fill="#83D689"/>
<path d="M24.3437 48.9844H17.0703C16.2539 48.9844 15.5859 48.3164 15.5859 47.5V40.0781C15.5859 39.2617 16.2539 38.5938 17.0703 38.5938H24.4922C25.3086 38.5938 25.9766 39.2617 25.9766 40.0781V47.3516C25.9766 48.2422 25.2344 48.9844 24.3437 48.9844Z" fill="#83D689"/>
<path d="M24.4922 64.5703H17.0703C16.2539 64.5703 15.5859 63.9023 15.5859 63.0859V55.6641C15.5859 54.8477 16.2539 54.1797 17.0703 54.1797H24.4922C25.3086 54.1797 25.9766 54.8477 25.9766 55.6641V63.0859C25.9766 63.9023 25.3086 64.5703 24.4922 64.5703Z" fill="#83D689"/>
<path d="M24.4922 34.1406H17.0703C16.2539 34.1406 15.5859 33.4727 15.5859 32.6562V25.2344C15.5859 24.418 16.2539 23.75 17.0703 23.75H24.4922C25.3086 23.75 25.9766 24.418 25.9766 25.2344V32.6562C25.9766 33.4727 25.3086 34.1406 24.4922 34.1406Z" stroke="#242C88" stroke-width="2" stroke-miterlimit="10" stroke-linecap="round" stroke-linejoin="round"/>
<path d="M24.3437 48.9844H17.0703C16.2539 48.9844 15.5859 48.3164 15.5859 47.5V40.0781C15.5859 39.2617 16.2539 38.5938 17.0703 38.5938H24.4922C25.3086 38.5938 25.9766 39.2617 25.9766 40.0781V47.3516C25.9766 48.2422 25.2344 48.9844 24.3437 48.9844Z" stroke="#242C88" stroke-width="2" stroke-miterlimit="10" stroke-linecap="round" stroke-linejoin="round"/>
<path d="M24.4922 64.5703H17.0703C16.2539 64.5703 15.5859 63.9023 15.5859 63.0859V55.6641C15.5859 54.8477 16.2539 54.1797 17.0703 54.1797H24.4922C25.3086 54.1797 25.9766 54.8477 25.9766 55.6641V63.0859C25.9766 63.9023 25.3086 64.5703 24.4922 64.5703Z" stroke="#242C88" stroke-width="2" stroke-miterlimit="10" stroke-linecap="round" stroke-linejoin="round"/>
<path opacity="0.2" d="M58.6328 74.9609V17.8125H20.7812C19.9648 17.8125 19.2969 18.4805 19.2969 19.2969V74.9609H58.6328Z" fill="#242C88"/>
<path d="M73.4766 21.5234H23.0078V83.125H73.4766V21.5234Z" fill="white"/>
<path d="M73.4766 21.5234H23.0078V83.125H73.4766V21.5234Z" stroke="#242C88" stroke-width="2" stroke-miterlimit="10" stroke-linecap="round" stroke-linejoin="round"/>
<path opacity="0.2" d="M46.7578 39.3359H55.6641" stroke="#242C88" stroke-width="2" stroke-miterlimit="10" stroke-linecap="round" stroke-linejoin="round"/>
<path opacity="0.2" d="M46.7578 35.625H64.5703" stroke="#242C88" stroke-width="2" stroke-miterlimit="10" stroke-linecap="round" stroke-linejoin="round"/>
<path d="M40.0781 43.0469H32.6562C31.8398 43.0469 31.1719 42.3789 31.1719 41.5625V34.1406C31.1719 33.3242 31.8398 32.6562 32.6562 32.6562H40.0781C40.8945 32.6562 41.5625 33.3242 41.5625 34.1406V41.5625C41.5625 42.3789 40.8945 43.0469 40.0781 43.0469Z" fill="#83D689"/>
<path d="M33.6211 38.3711L35.7734 40.375L40.0039 36.0703" stroke="#242C88" stroke-width="2" stroke-miterlimit="10" stroke-linecap="round" stroke-linejoin="round"/>
<path opacity="0.2" d="M46.7578 54.9219H55.6641" stroke="#242C88" stroke-width="2" stroke-miterlimit="10" stroke-linecap="round" stroke-linejoin="round"/>
<path opacity="0.2" d="M46.7578 50.4688H64.5703" stroke="#242C88" stroke-width="2" stroke-miterlimit="10" stroke-linecap="round" stroke-linejoin="round"/>
<path d="M40.0781 57.8906H32.6562C31.8398 57.8906 31.1719 57.2227 31.1719 56.4062V48.9844C31.1719 48.168 31.8398 47.5 32.6562 47.5H39.9297C40.8203 47.5 41.5625 48.2422 41.5625 49.1328V56.4062C41.5625 57.2227 40.8945 57.8906 40.0781 57.8906Z" fill="#83D689"/>
<path d="M33.6211 53.3633L35.7734 55.3672L40.0039 51.1367" stroke="#242C88" stroke-width="2" stroke-miterlimit="10" stroke-linecap="round" stroke-linejoin="round"/>
<path opacity="0.2" d="M46.7578 69.7656H55.6641" stroke="#242C88" stroke-width="2" stroke-miterlimit="10" stroke-linecap="round" stroke-linejoin="round"/>
<path opacity="0.2" d="M46.7578 66.0547H64.5703" stroke="#242C88" stroke-width="2" stroke-miterlimit="10" stroke-linecap="round" stroke-linejoin="round"/>
<path d="M40.0781 72.7344H32.6562C31.8398 72.7344 31.1719 72.0664 31.1719 71.25V63.8281C31.1719 63.0117 31.8398 62.3438 32.6562 62.3438H40.0781C40.8945 62.3438 41.5625 63.0117 41.5625 63.8281V71.25C41.5625 72.0664 40.8945 72.7344 40.0781 72.7344Z" fill="#83D689"/>
<path d="M40.0781 43.0469H32.6562C31.8398 43.0469 31.1719 42.3789 31.1719 41.5625V34.1406C31.1719 33.3242 31.8398 32.6562 32.6562 32.6562H40.0781C40.8945 32.6562 41.5625 33.3242 41.5625 34.1406V41.5625C41.5625 42.3789 40.8945 43.0469 40.0781 43.0469Z" stroke="#242C88" stroke-width="2" stroke-miterlimit="10" stroke-linecap="round" stroke-linejoin="round"/>
<path d="M40.0781 57.8906H32.6562C31.8398 57.8906 31.1719 57.2227 31.1719 56.4062V48.9844C31.1719 48.168 31.8398 47.5 32.6562 47.5H39.9297C40.8203 47.5 41.5625 48.2422 41.5625 49.1328V56.4062C41.5625 57.2227 40.8945 57.8906 40.0781 57.8906Z" stroke="#242C88" stroke-width="2" stroke-miterlimit="10" stroke-linecap="round" stroke-linejoin="round"/>
<path d="M40.0781 72.7344H32.6562C31.8398 72.7344 31.1719 72.0664 31.1719 71.25V63.8281C31.1719 63.0117 31.8398 62.3438 32.6562 62.3438H40.0781C40.8945 62.3438 41.5625 63.0117 41.5625 63.8281V71.25C41.5625 72.0664 40.8945 72.7344 40.0781 72.7344Z" stroke="#242C88" stroke-width="2" stroke-miterlimit="10" stroke-linecap="round" stroke-linejoin="round"/>
<path opacity="0.2" d="M73.4766 42.75L48.3906 57.5195L39.7812 70.4336L55.2188 69.0977L73.4766 58.3359V42.75Z" fill="#242C88"/>
<path d="M82.6797 37.1836L54.7734 65.0898L40.1523 70.2109L45.2734 55.5898L73.1797 27.6836L82.6797 37.1836Z" fill="white"/>
<path d="M73.2029 27.7205L45.2834 55.6399L54.7823 65.1388L82.7018 37.2194L73.2029 27.7205Z" fill="#FFC408"/>
<path opacity="0.2" d="M79.8969 34.4292L51.9775 62.3486L54.759 65.1301L82.6784 37.2107L79.8969 34.4292Z" fill="#242C88"/>
<path d="M42.3789 63.8281L40.1523 70.0625L46.3867 67.8359L42.3789 63.8281Z" fill="#5E61A3"/>
<path d="M82.6797 37.1836L54.7734 65.0898L40.1523 70.2109L45.2734 55.5898L73.1797 27.6836L82.6797 37.1836Z" stroke="#242C88" stroke-width="2" stroke-miterlimit="10" stroke-linecap="round" stroke-linejoin="round"/>
<path d="M82.6797 37.1836L87.1328 32.7305C88.3945 31.4688 88.3945 29.4648 87.1328 28.2773L82.0859 23.2305C80.8242 21.9688 78.8203 21.9688 77.6328 23.2305L73.1797 27.6836L82.6797 37.1836Z" fill="#F3877E"/>
<path d="M82.6797 37.1836L87.1328 32.7305C88.3945 31.4687 88.3945 29.4648 87.1328 28.2773L82.0859 23.2305C80.8242 21.9688 78.8203 21.9688 77.6328 23.2305L73.1797 27.6836L82.6797 37.1836Z" stroke="#242C88" stroke-width="2" stroke-miterlimit="10" stroke-linecap="round" stroke-linejoin="round"/>
<path d="M59.8203 54.4766L79.3398 34.957" stroke="#242C88" stroke-width="2" stroke-miterlimit="10" stroke-linecap="round" stroke-linejoin="round"/>
<path d="M51.9531 62.3437L56.4805 57.8164" stroke="#242C88" stroke-width="2" stroke-miterlimit="10" stroke-linecap="round" stroke-linejoin="round"/>
<path d="M74.8645 26.0921L70.981 29.9756L80.4798 39.4745L84.3634 35.591L74.8645 26.0921Z" fill="white"/>
<path opacity="0.2" d="M74.8645 26.0921L70.981 29.9756L80.4798 39.4745L84.3634 35.591L74.8645 26.0921Z" fill="#242C88"/>
<path d="M74.8645 26.0921L70.981 29.9756L80.4798 39.4745L84.3634 35.591L74.8645 26.0921Z" stroke="#242C88" stroke-width="2" stroke-miterlimit="10" stroke-linecap="round" stroke-linejoin="round"/>
</svg>