<svg width="120" height="103" viewBox="0 0 120 103" fill="none" xmlns="http://www.w3.org/2000/svg">
<path d="M20.3403 1H91.0403C97.0574 1 101.785 5.72766 101.785 11.7447V49.566L102 91.2553C102 97.2723 97.2722 102 91.2552 102H20.3403" fill="#E5E5E5"/>
<path d="M62.0298 74.9243C62.0298 74.9243 56.4425 55.369 82.6595 42.2605C81.5851 47.8477 81.1553 49.5669 81.1553 49.5669L87.817 39.6818C87.817 39.6818 110.166 37.5328 118.762 26.5732C116.613 34.9541 112.1 41.8307 112.1 41.8307L105.868 46.1286L110.811 45.6988C110.811 45.6988 107.587 54.0796 103.504 57.7328C101.355 58.1626 93.4042 58.8073 93.4042 58.8073L100.281 61.8158C100.281 61.8158 95.5532 67.403 91.4702 70.1966C86.9574 71.486 78.5766 67.6179 78.5766 67.6179C78.5766 67.6179 80.5106 71.0562 85.2383 72.5605C79.8659 77.503 67.617 75.9988 62.0298 74.9243Z" fill="#FFD766"/>
<path d="M62.0298 74.9243C62.0298 74.9243 56.4425 55.369 82.6595 42.2605C81.5851 47.8477 81.1553 49.5669 81.1553 49.5669L87.817 39.6818C87.817 39.6818 110.166 37.5328 118.762 26.5732C116.613 34.9541 112.1 41.8307 112.1 41.8307L105.868 46.1286L110.811 45.6988C110.811 45.6988 107.587 54.0796 103.504 57.7328C101.355 58.1626 93.4042 58.8073 93.4042 58.8073L100.281 61.8158C100.281 61.8158 95.5532 67.403 91.4702 70.1966C86.9574 71.486 78.5766 67.6179 78.5766 67.6179C78.5766 67.6179 80.5106 71.0562 85.2383 72.5605C79.8659 77.503 67.617 75.9988 62.0298 74.9243Z" stroke="#2C3E50" stroke-width="2" stroke-miterlimit="10" stroke-linecap="round" stroke-linejoin="round"/>
<path d="M52.5742 89.1065C52.5742 89.1065 62.0295 65.4683 96.1976 46.5576" stroke="#2C3E50" stroke-width="2" stroke-miterlimit="10" stroke-linecap="round" stroke-linejoin="round"/>
<path d="M22.4894 91.2559C22.4894 97.2729 17.7617 102.001 11.7447 102.001H12.1745C5.94255 102.001 1 97.7027 1 91.2559H16.0426" fill="#B7B7B7"/>
<path d="M22.4894 11.7447C22.4894 5.72766 17.7617 1 11.7447 1H12.1745C5.94255 1 1 5.29787 1 11.7447H16.0426" fill="#B7B7B7"/>
<path d="M102 70.8398V91.2547C102 97.2718 97.2723 101.999 91.2553 101.999H12.1745C5.94255 101.999 1 97.7015 1 91.2547H16.0426" stroke="#2C3E50" stroke-width="2" stroke-miterlimit="10" stroke-linecap="round" stroke-linejoin="round"/>
<path d="M11.7451 1H91.0409C97.0579 1 101.786 5.72766 101.786 11.7447V28.5064" stroke="#2C3E50" stroke-width="2" stroke-miterlimit="10" stroke-linecap="round" stroke-linejoin="round"/>
<path d="M12.3894 102C23.3489 102 22.4894 90.1809 22.4894 90.1809V11.7447C22.4894 5.72766 17.7617 1 11.7447 1C5.72766 1 1 5.72766 1 11.7447H16.0426" stroke="#2C3E50" stroke-width="2" stroke-miterlimit="10" stroke-linecap="round" stroke-linejoin="round"/>
<path d="M43.9785 18.1914H82.6594" stroke="#2C3E50" stroke-width="2" stroke-miterlimit="10" stroke-linecap="round" stroke-linejoin="round"/>
<path d="M43.9785 28.9365H82.6594" stroke="#2C3E50" stroke-width="2" stroke-miterlimit="10" stroke-linecap="round" stroke-linejoin="round"/>
<path d="M43.9785 39.6807H71.9147" stroke="#2C3E50" stroke-width="2" stroke-miterlimit="10" stroke-linecap="round" stroke-linejoin="round"/>
</svg>