<svg width="53" height="62" viewBox="0 0 53 62" fill="none" xmlns="http://www.w3.org/2000/svg">
<path fill-rule="evenodd" clip-rule="evenodd" d="M42.8057 22.5213C42.5362 22.2388 42.1609 22.0633 41.7483 22.0633C41.339 22.0633 40.9635 22.2387 40.6941 22.5213C40.4213 22.804 40.254 23.1974 40.254 23.6302C40.254 24.0632 40.4212 24.4567 40.6906 24.7357C40.9603 25.0219 41.3354 25.1972 41.7483 25.1972C42.1541 25.1972 42.5193 25.029 42.7856 24.7573L42.8057 24.7357C43.0754 24.4531 43.2426 24.0632 43.2426 23.6302C43.2426 23.1974 43.0754 22.804 42.8057 22.5213ZM17.5937 55.2869H20.5824C19.2383 51.6272 18.1668 37.5965 18.1636 37.5535C18.1467 37.3103 18.3205 37.0993 18.5489 37.0814C18.7813 37.0634 18.9823 37.2458 18.9992 37.4893C18.9992 37.5358 20.197 53.323 21.4662 55.2869H37.1458C37.9784 54.5107 37.9921 52.1995 38.0056 49.9172C38.0194 47.6168 38.0329 45.3454 38.9234 44.29C40.1925 42.7874 41.653 42.8912 43.4848 43.0199C43.9486 43.0522 44.44 43.088 44.9243 43.0951C48.0017 43.1486 48.6532 41.4959 48.6807 39.5747C48.6941 38.8343 48.6192 38.0365 48.5474 37.2745C48.3596 35.2639 48.1894 33.4717 49.5708 32.8921C49.8064 32.7919 49.9223 32.767 50.1304 32.7277L50.3182 32.6881C52.0922 32.309 52.6313 31.8726 52.5287 31.3468C52.42 30.7671 51.7274 29.9695 50.9185 29.0357C50.1849 28.1879 49.3558 27.2291 48.7145 26.1416C48.0082 24.9432 48.022 23.233 48.0426 21.1476C48.0835 16.572 48.1415 10.0861 40.2164 4.11192C36.2521 1.12122 31.0492 -0.274068 25.9931 0.0445088C21.145 0.348429 16.4372 2.2339 13.1002 5.80766C9.59328 9.55676 8.09543 14.1932 8.28323 18.8831C8.4812 23.8808 10.5926 28.9501 14.2227 33.0854C16.1469 35.2784 16.4814 41.3386 16.7886 46.9408C16.9694 50.1892 17.1402 53.2801 17.5937 55.2869ZM29.6675 15.37L32.6049 15.835V17.4307L29.6675 17.8957L29.5961 18.3142L29.4971 18.7436L29.3777 19.1551L29.2375 19.57L31.5609 21.5125L30.8002 22.897L28.0336 21.7558L27.771 22.0814L27.4807 22.3997L27.1841 22.6967L26.8635 22.9829L27.9516 25.8842L26.6311 26.6819L24.7788 24.2458L24.4001 24.3889C24.1103 24.4783 23.8882 24.5426 23.5983 24.6142L23.1823 24.6964L22.7422 27.7765H21.2169L20.7732 24.6964L20.374 24.6212L19.9646 24.5175L19.5723 24.3959L19.1767 24.2458L17.3242 26.6819L16.0037 25.8842L17.0923 22.9829L16.7851 22.7077L16.4778 22.4035L16.1983 22.0922L15.9218 21.7559L13.1587 22.8971L12.3944 21.5126L14.7177 19.5701L14.5777 19.1659L14.4617 18.7438L14.3662 18.3323L14.2909 17.896L11.3535 17.4344V15.8318L14.2878 15.3703L14.3627 14.9516L14.4617 14.5223L14.5777 14.1074L14.7177 13.696L12.3944 11.7534L13.1587 10.3689L15.9218 11.5101L16.1915 11.1846L16.4778 10.8625L16.7785 10.5655L17.0924 10.2831L16.0039 7.38176L17.3243 6.58405L19.1768 9.02034L19.5657 8.87351L19.9648 8.75199L20.3571 8.6518L20.7732 8.57305L21.2169 5.48922H22.7419L23.1821 8.56932L23.5776 8.64433L23.9906 8.74813L24.3795 8.86978L24.7787 9.02007L26.631 6.58378L27.9515 7.38149L26.8634 10.2828L27.177 10.5619L27.4807 10.8658L27.7608 11.1771L28.0336 11.5098L30.8002 10.3686L31.5609 11.7531L29.2375 13.6957L29.3777 14.1036L29.4971 14.5222L29.5925 14.9335L29.6675 15.37ZM50.2533 57.8842C50.482 57.8842 50.6734 58.0809 50.6734 58.3241C50.6734 58.5674 50.482 58.7642 50.2533 58.7642H43.8054C43.5735 58.7642 43.3857 58.5674 43.3857 58.3241C43.3857 58.0809 43.5735 57.8842 43.8054 57.8842H50.2533ZM42.2465 60.4099C42.4784 60.4099 42.6661 60.6066 42.6661 60.8499C42.6661 61.0931 42.4784 61.29 42.2465 61.29H27.6345C27.402 61.29 27.2148 61.0931 27.2148 60.8499C27.2148 60.6066 27.402 60.4099 27.6345 60.4099H42.2465ZM9.15655 61.2899C8.92821 61.2899 8.73685 61.093 8.73685 60.8498C8.73685 60.6065 8.92821 60.4097 9.15655 60.4097H15.6048C15.8367 60.4097 16.0245 60.6065 16.0245 60.8498C16.0245 61.093 15.8367 61.2899 15.6048 61.2899H9.15655ZM21.2918 61.2899C21.0635 61.2899 20.8723 61.093 20.8723 60.8498C20.8723 60.6065 21.0635 60.4097 21.2918 60.4097H24.2328C24.4647 60.4097 24.6525 60.6065 24.6525 60.8498C24.6525 61.093 24.4647 61.2899 24.2328 61.2899H21.2918ZM5.90214 33.0926C6.04522 33.2821 6.01447 33.5576 5.83035 33.7043C5.64979 33.8546 5.38714 33.8224 5.24356 33.6293L3.55473 31.3646V52.0814C3.55473 52.3247 3.36744 52.5215 3.13503 52.5215C2.90669 52.5215 2.71546 52.3247 2.71546 52.0814V31.3646L1.02485 33.6292C0.885332 33.8223 0.62256 33.8545 0.43984 33.7042C0.2575 33.5575 0.22675 33.282 0.366777 33.0925L2.78725 29.8513C2.86222 29.7297 2.9884 29.6509 3.13503 29.6509C3.28179 29.6509 3.41153 29.7297 3.4865 29.8513L5.90214 33.0926ZM9.97574 39.6284C10.1188 39.8182 10.0845 40.0937 9.90395 40.2439C9.72288 40.3907 9.46024 40.3583 9.31703 40.1687L7.6282 37.9043V58.6211C7.6282 58.8644 7.4404 59.0612 7.20863 59.0612C6.97674 59.0612 6.78893 58.8644 6.78893 58.6211V37.9042L5.10023 40.1686C4.9602 40.3583 4.69756 40.3906 4.51331 40.2437C4.33275 40.0936 4.30188 39.818 4.44152 39.6283L6.86073 36.3874C6.93214 36.2692 7.06187 36.1906 7.20851 36.1906C7.35514 36.1906 7.485 36.2692 7.55997 36.3874L9.97574 39.6284ZM17.1639 58.7642C16.932 58.7642 16.7442 58.5674 16.7442 58.3241C16.7442 58.0809 16.932 57.8842 17.1639 57.8842H39.8376C40.0699 57.8842 40.2577 58.0809 40.2577 58.3241C40.2577 58.5674 40.0699 58.7642 39.8376 58.7642H17.1639Z" fill="#FD7E7E"/>
</svg>