<svg width="78" height="43" viewBox="0 0 78 43" fill="none" xmlns="http://www.w3.org/2000/svg">
<path d="M41.9997 32.06L42.2624 33.0249L41.9997 32.06ZM71.7108 1.70818C71.5497 1.17993 70.9908 0.882349 70.4625 1.04351L61.8543 3.66979C61.326 3.83095 61.0284 4.38983 61.1896 4.91808C61.3508 5.44633 61.9096 5.74391 62.4379 5.58275L70.0897 3.24827L72.4242 10.9001C72.5853 11.4283 73.1442 11.7259 73.6724 11.5648C74.2007 11.4036 74.4983 10.8447 74.3371 10.3165L71.7108 1.70818ZM1 19.4325C0.450318 20.2679 0.450576 20.268 0.450931 20.2683C0.451179 20.2684 0.451632 20.2687 0.452128 20.2691C0.453121 20.2697 0.454503 20.2706 0.456271 20.2718C0.459808 20.2741 0.464891 20.2774 0.471505 20.2817C0.484732 20.2904 0.504079 20.303 0.52941 20.3195C0.580071 20.3523 0.654671 20.4005 0.752118 20.4629C0.947006 20.5875 1.23332 20.7688 1.60233 20.9974C2.34027 21.4546 3.4094 22.1015 4.73979 22.8639C7.39911 24.3877 11.1096 26.3772 15.3106 28.2359C19.508 30.093 24.2186 31.8302 28.8746 32.8364C33.5189 33.8401 38.1885 34.1342 42.2624 33.0249L41.7369 31.0951C38.098 32.086 33.7863 31.8517 29.297 30.8816C24.8194 29.9139 20.2442 28.2317 16.1198 26.4069C11.9991 24.5837 8.35202 22.6287 5.73416 21.1286C4.42596 20.3789 3.3766 19.744 2.6557 19.2973C2.29529 19.074 2.0171 18.8978 1.82983 18.7781C1.7362 18.7182 1.66532 18.6724 1.61826 18.6418C1.59473 18.6266 1.57716 18.6151 1.56568 18.6076C1.55995 18.6039 1.55573 18.6011 1.55306 18.5993C1.55172 18.5985 1.55077 18.5978 1.55021 18.5975C1.54993 18.5973 1.5498 18.5972 1.54965 18.5971C1.54962 18.5971 1.54968 18.5971 1 19.4325ZM42.2624 33.0249C46.199 31.9529 49.9951 29.4572 53.4463 26.3986C56.9065 23.3321 60.0789 19.647 62.7647 16.1124C65.4528 12.5749 67.6682 9.16872 69.2112 6.64797C69.9831 5.38691 70.5878 4.34575 71.0002 3.61839C71.2065 3.25468 71.3648 2.96931 71.4719 2.77403C71.5255 2.67638 71.5663 2.60124 71.594 2.55008C71.6078 2.5245 71.6183 2.50492 71.6255 2.4915C71.6291 2.4848 71.6319 2.47964 71.6338 2.47604C71.6348 2.47424 71.6355 2.47284 71.636 2.47182C71.6363 2.47132 71.6366 2.47086 71.6367 2.4706C71.6369 2.47024 71.637 2.46998 70.7544 1.99999C69.8717 1.53 69.8717 1.52993 69.8717 1.52996C69.8716 1.53011 69.8716 1.53024 69.8714 1.53052C69.8711 1.53109 69.8706 1.53206 69.8699 1.53341C69.8684 1.53612 69.8661 1.54038 69.863 1.54619C69.8568 1.5578 69.8472 1.57557 69.8344 1.59931C69.8088 1.64678 69.77 1.71814 69.7186 1.81191C69.6156 1.99946 69.4619 2.27665 69.2605 2.6318C68.8577 3.34217 68.2643 4.36396 67.5054 5.60382C65.9867 8.08491 63.8091 11.4324 61.1723 14.9024C58.5333 18.3753 55.449 21.9514 52.1198 24.9018C48.7817 27.8601 45.2558 30.1369 41.7369 31.0951L42.2624 33.0249Z" fill="#AAAAAA"/>
</svg>
