<svg width="200" height="200" viewBox="0 0 200 200" fill="none" xmlns="http://www.w3.org/2000/svg">
<g filter="url(#filter0_d)">
<rect x="20" width="160" height="160" rx="7" fill="white"/>
</g>
<path d="M107.292 69.3352H81.6205C80.9175 69.3352 80.3469 68.6797 80.3469 67.9766C80.3469 67.2736 80.9175 66.6181 81.6205 66.6181H105.76C105.177 65.7124 104.668 64.1275 104.236 63.2218H81.6205C80.9175 63.2218 80.3469 62.5713 80.3469 61.8633C80.3469 61.1602 80.9175 60.5048 81.6205 60.5048H103.452C102.891 58.467 102.587 56.066 102.587 53.7042C102.587 49.3893 103.542 45.3346 105.315 41.7118H57.7327C55.6338 41.7118 54.1512 43.4836 54.1512 45.5829V118.695H106.653C107.953 118.695 109.199 119.096 110.174 119.946C110.293 120.046 110.476 120.181 110.734 120.472L110.834 120.522C111.632 121.48 112.115 122.683 112.115 123.941V129.576C112.115 132.877 114.153 137.589 116.87 137.589V137.525C112.568 137.461 109.171 133.932 109.171 129.576V123.941C109.171 123.379 108.874 122.861 108.543 122.464C108.543 122.464 108.323 122.279 108.251 122.225C107.843 121.856 107.248 121.638 106.653 121.638H48.2948C47.011 121.638 46 122.657 46 123.941V129.417C46 133.9 49.6055 137.488 54.0898 137.488H116.808C118.846 137.488 120.486 136.876 121.836 135.816C123.696 134.364 125.021 132.122 125.021 129.575V80.9483C117.549 79.5225 111.323 75.4485 107.292 69.3352ZM67.1783 59.2198C68.5748 59.2198 69.8605 59.6838 70.9009 60.4586L66.3215 65.037L65.496 64.0602C64.9963 63.4695 64.1114 63.3955 63.5218 63.8952C62.9306 64.3949 62.857 65.2788 63.3565 65.8698L65.1661 68.0093C65.4185 68.3086 65.7856 68.4877 66.1775 68.5042C66.197 68.5051 66.2164 68.5056 66.2359 68.5056C66.6066 68.5056 66.963 68.3588 67.2261 68.0955L72.7242 62.5978C73.1701 63.458 73.4261 64.4323 73.4261 65.4679C73.4261 68.9181 70.6287 71.7158 67.1783 71.7158C63.7276 71.7158 60.9309 68.9183 60.9309 65.4679C60.9309 62.017 63.7276 59.2198 67.1783 59.2198ZM67.1783 79.1012C68.5748 79.1012 69.86 79.5651 70.9009 80.3395L66.3215 84.9184L65.496 83.9416C64.9963 83.3509 64.1114 83.2768 63.5218 83.7765C62.9306 84.2758 62.857 85.1602 63.3565 85.7511L65.1661 87.8906C65.4185 88.1895 65.7856 88.369 66.1775 88.3856C66.197 88.3865 66.2164 88.3869 66.2359 88.3869C66.6066 88.3869 66.963 88.2397 67.2261 87.9764L72.7242 82.4791C73.1701 83.3393 73.4261 84.3136 73.4261 85.3488C73.4261 88.7995 70.6287 91.5967 67.1783 91.5967C63.7276 91.5967 60.9309 88.7995 60.9309 85.3488C60.9309 81.8981 63.7276 79.1012 67.1783 79.1012ZM67.1783 111.478C63.7276 111.478 60.9309 108.68 60.9309 105.23C60.9309 101.779 63.7276 98.9823 67.1783 98.9823C68.5748 98.9823 69.86 99.4462 70.9009 100.221L66.3215 104.799L65.496 103.823C64.9963 103.232 64.1114 103.158 63.5218 103.658C62.9306 104.157 62.857 105.041 63.3565 105.632L65.1661 107.771C65.4185 108.071 65.7856 108.25 66.1775 108.267C66.197 108.267 66.2164 108.268 66.2359 108.268C66.6066 108.268 66.963 108.121 67.2261 107.858L72.7242 102.36C73.1701 103.22 73.4261 104.195 73.4261 105.23C73.4261 108.681 70.6285 111.478 67.1783 111.478ZM113.233 108.959H81.6233C80.9198 108.959 80.3496 108.417 80.3496 107.714C80.3496 107.01 80.9198 106.468 81.6233 106.468H113.233C113.936 106.468 114.507 107.01 114.507 107.714C114.507 108.417 113.936 108.959 113.233 108.959ZM113.233 102.845H81.6233C80.9198 102.845 80.3496 102.304 80.3496 101.6C80.3496 100.897 80.9198 100.355 81.6233 100.355H113.233C113.936 100.355 114.507 100.897 114.507 101.6C114.507 102.304 113.936 102.845 113.233 102.845ZM113.233 89.0338H81.6233C80.9198 89.0338 80.3496 88.492 80.3496 87.7885C80.3496 87.085 80.9198 86.5432 81.6233 86.5432H113.233C113.936 86.5432 114.507 87.085 114.507 87.7885C114.507 88.492 113.936 89.0338 113.233 89.0338ZM114.507 81.6751C114.507 82.3786 113.936 82.9204 113.233 82.9204H81.6233C80.9198 82.9204 80.3496 82.3786 80.3496 81.6751C80.3496 80.9716 80.9198 80.4298 81.6233 80.4298H113.233C113.936 80.4298 114.507 80.9716 114.507 81.6751Z" fill="#FFA5A5" fill-opacity="0.86"/>
<path d="M130.177 29C116.467 29 105.351 40.1164 105.351 53.8307C105.351 67.5398 116.467 78.6557 130.177 78.6557C143.891 78.6557 155.002 67.5398 155.002 53.8307C155.002 40.1164 143.891 29 130.177 29ZM131.587 57.1726C131.587 57.193 131.582 57.2186 131.577 57.2385C131.557 57.7582 131.243 58.2273 130.77 58.4463C130.582 58.5325 130.376 58.5737 130.178 58.5737C129.872 58.5737 129.566 58.4721 129.316 58.2731C129.301 58.2629 129.285 58.2475 129.27 58.2377L121.949 52.0121L121.939 52.0069L121.353 51.5076C120.762 51.0083 120.69 50.1221 121.195 49.5361C121.694 48.9454 122.402 48.8741 122.988 49.3734L128.417 54.142V39.5356C128.417 38.7612 129.228 38.1345 130.002 38.1345C130.776 38.1345 131.587 38.7612 131.587 39.5356V57.1726V57.1726Z" fill="#FFA5A5" fill-opacity="0.86"/>
<defs>
<filter id="filter0_d" x="0" y="0" width="200" height="200" filterUnits="userSpaceOnUse" color-interpolation-filters="sRGB">
<feFlood flood-opacity="0" result="BackgroundImageFix"/>
<feColorMatrix in="SourceAlpha" type="matrix" values="0 0 0 0 0 0 0 0 0 0 0 0 0 0 0 0 0 0 127 0"/>
<feOffset dy="20"/>
<feGaussianBlur stdDeviation="10"/>
<feColorMatrix type="matrix" values="0 0 0 0 0 0 0 0 0 0 0 0 0 0 0 0 0 0 0.15 0"/>
<feBlend mode="normal" in2="BackgroundImageFix" result="effect1_dropShadow"/>
<feBlend mode="normal" in="SourceGraphic" in2="effect1_dropShadow" result="shape"/>
</filter>
</defs>
</svg>
