<svg width="200" height="200" viewBox="0 0 200 200" fill="none" xmlns="http://www.w3.org/2000/svg">
<g filter="url(#filter0_d)">
<rect x="20" width="160" height="160" rx="7" fill="white"/>
</g>
<path d="M148.073 72.4277H121.246C120.42 72.4277 119.928 73.3478 119.928 74.1789V133.54C119.928 134.367 120.42 134.994 121.246 134.994H148.073C148.9 134.994 149.318 134.367 149.318 133.54V74.1789C149.318 73.3478 148.9 72.4277 148.073 72.4277Z" fill="#FFE34E" fill-opacity="0.86"/>
<path d="M113.916 105.636C113.916 104.806 113.328 104.045 112.498 104.045H85.4454C84.6153 104.045 83.8574 104.806 83.8574 105.636V133.802C83.8574 134.632 84.6153 135.217 85.4454 135.217H112.498C113.328 135.217 113.916 134.632 113.916 133.802V105.636Z" fill="#FFE34E" fill-opacity="0.86"/>
<path d="M78.291 121C78.291 120.169 77.7032 119.408 76.8731 119.408H49.8204C48.9903 119.408 48.2324 120.17 48.2324 121V133.58C48.2324 134.41 48.9903 134.994 49.8204 134.994H76.8731C77.7032 134.994 78.291 134.41 78.291 133.58V121Z" fill="#FFE34E" fill-opacity="0.86"/>
<path d="M56.248 112.051C57.0086 112.051 57.8066 111.434 57.8066 110.674V103.826C57.8066 93.7609 65.8002 85.3416 75.865 85.3416H84.9578C85.7188 85.3416 86.3066 84.9555 86.3066 84.1949V74.9611C86.3066 64.2905 95.017 55.2832 105.688 55.2832H105.9V58.5689C105.9 59.0507 106.151 59.4774 106.598 59.657C106.741 59.7145 106.87 59.7423 107.017 59.7423C107.33 59.7423 107.626 59.6163 107.853 59.3787L111.992 55.042C112.426 54.5876 112.423 53.8758 111.989 53.4218L107.845 49.0847C107.511 48.736 107.045 48.6271 106.598 48.8063C106.151 48.9856 105.9 49.4126 105.9 49.8945V52.834H105.688C93.4975 52.834 83.1895 62.7711 83.1895 74.9611V82.8926H75.865C64.2808 82.8926 54.6895 92.2419 54.6895 103.826V110.674C54.6895 111.434 55.4875 112.051 56.248 112.051Z" fill="#FFE34E" fill-opacity="0.86"/>
<path d="M134.4 32.9771C135.161 32.9771 135.959 32.3603 135.959 31.5993V28.2543C135.959 27.4933 135.161 26.8765 134.4 26.8765C133.64 26.8765 132.842 27.4933 132.842 28.2543V31.5993C132.842 32.3603 133.64 32.9771 134.4 32.9771Z" fill="#FFE34E" fill-opacity="0.86"/>
<path d="M140.799 34.3348C141 34.4384 141.214 34.4871 141.426 34.4871C141.926 34.4871 142.409 34.2133 142.653 33.7374L144.202 30.7142C144.549 30.0371 144.281 29.2068 143.604 28.8599C142.927 28.5119 142.096 28.7809 141.749 29.458L140.201 32.4808C139.854 33.1579 140.122 33.9882 140.799 34.3348Z" fill="#FFE34E" fill-opacity="0.86"/>
<path d="M126.592 33.4658C126.826 33.9654 127.322 34.2591 127.84 34.2591C128.036 34.2591 128.235 34.217 128.424 34.1286C129.113 33.8051 129.41 32.9849 129.086 32.2957L127.647 29.2273C127.325 28.5389 126.505 28.2432 125.815 28.5649C125.126 28.8884 124.83 29.7082 125.153 30.3974L126.592 33.4658Z" fill="#FFE34E" fill-opacity="0.86"/>
<path d="M147.811 41.9238H145.053L145.248 38.7884C145.3 37.9392 144.625 37.248 143.774 37.248H125.098C124.247 37.248 123.572 37.9392 123.625 38.7884L123.819 41.9238H121.514C119.36 41.9238 117.611 43.7189 117.611 45.8731C117.611 47.0202 118.112 48.1306 118.994 48.8716L122.415 51.7786L122.416 51.7908L124.63 53.6647C124.63 53.662 124.629 53.66 124.629 53.6576L124.63 53.6587L124.636 53.6667C125.365 57.3058 128.051 60.2072 131.528 61.2622C132.218 61.4722 132.694 62.1063 132.745 62.8264L133.256 68.0073C133.277 68.297 133.047 68.4199 132.757 68.4199H128.336C128.059 68.4199 127.943 68.8922 127.943 69.1683V70.1702C127.943 70.4472 128.059 70.4238 128.336 70.4238H140.536C140.813 70.4238 140.857 70.4472 140.857 70.1702V69.1683C140.857 68.8922 140.813 68.4199 140.536 68.4199H136.116C135.825 68.4199 135.596 68.2975 135.616 68.0078L136.128 62.7656C136.179 62.0455 136.654 61.4604 137.345 61.2502C140.668 60.2409 143.268 57.5098 144.128 54.1699H144.133L144.135 54.1501C144.134 54.1528 144.13 54.1465 144.129 54.1488L146.424 52.1916V52.1885L150.326 48.8934C151.203 48.1524 151.705 47.0191 151.705 45.8717C151.706 43.718 149.96 41.9238 147.811 41.9238ZM120.287 47.3671C119.861 47.0066 119.615 46.4291 119.615 45.8733C119.615 44.8257 120.467 43.928 121.514 43.928H121.929H121.935H123.944H123.938H123.942L124.361 50.7644L122.245 49.0272L120.287 47.3671ZM134.379 54.5789C131.313 54.5789 128.826 52.0923 128.826 49.0257C128.826 45.9581 131.313 43.472 134.379 43.472C137.447 43.472 139.933 45.9581 139.933 49.0257C139.933 52.0923 137.447 54.5789 134.379 54.5789ZM149.033 47.3671L146.603 49.4211L144.487 51.1609L144.929 43.928H144.936H144.93H146.939H146.945H147.81C148.857 43.928 149.704 44.8257 149.704 45.8733C149.704 46.4288 149.459 47.0066 149.033 47.3671Z" fill="#FFE34E" fill-opacity="0.86"/>
<path d="M134.379 51.781C135.901 51.781 137.135 50.5474 137.135 49.0256C137.135 47.5039 135.901 46.2703 134.379 46.2703C132.857 46.2703 131.624 47.5039 131.624 49.0256C131.624 50.5474 132.857 51.781 134.379 51.781Z" fill="#FFE34E" fill-opacity="0.86"/>
<defs>
<filter id="filter0_d" x="0" y="0" width="200" height="200" filterUnits="userSpaceOnUse" color-interpolation-filters="sRGB">
<feFlood flood-opacity="0" result="BackgroundImageFix"/>
<feColorMatrix in="SourceAlpha" type="matrix" values="0 0 0 0 0 0 0 0 0 0 0 0 0 0 0 0 0 0 127 0"/>
<feOffset dy="20"/>
<feGaussianBlur stdDeviation="10"/>
<feColorMatrix type="matrix" values="0 0 0 0 0 0 0 0 0 0 0 0 0 0 0 0 0 0 0.15 0"/>
<feBlend mode="normal" in2="BackgroundImageFix" result="effect1_dropShadow"/>
<feBlend mode="normal" in="SourceGraphic" in2="effect1_dropShadow" result="shape"/>
</filter>
</defs>
</svg>
