<svg width="200" height="200" viewBox="0 0 200 200" fill="none" xmlns="http://www.w3.org/2000/svg">
<g filter="url(#filter0_d)">
<rect x="20" width="160" height="160" rx="7" fill="white"/>
</g>
<path d="M147.02 103.294H134.615L134.614 125.202C134.614 129.355 131.289 132.737 127.162 132.845C127.397 132.936 127.651 132.991 127.919 132.991H156.264C157.431 132.991 158.376 132.045 158.376 130.879V101.996C158.376 100.83 157.431 99.8849 156.264 99.8849H153.383C152.008 101.938 149.67 103.294 147.02 103.294Z" fill="#105AF6" fill-opacity="0.62"/>
<path d="M153.62 80.7276V80.716C153.585 80.7287 153.551 80.7424 153.517 80.7545L153.62 80.7276Z" fill="#105AF6" fill-opacity="0.62"/>
<path d="M140.356 89.0404H126.96C125.222 89.0404 123.522 89.7435 122.294 90.973C121.064 92.2009 120.361 93.9018 120.361 95.6391V125.202C120.361 128.846 123.315 131.8 126.96 131.8C130.604 131.8 133.558 128.846 133.558 125.202L133.559 102.237H141.38V102.238H147.02V102.238C147.023 102.238 147.025 102.237 147.028 102.237C150.668 102.233 153.618 99.281 153.618 95.6391H153.619V88.5816H140.32L140.356 89.0404Z" fill="#105AF6" fill-opacity="0.62"/>
<path d="M114.544 125.202V102.238H119.306V95.639C119.306 93.6214 120.124 91.6492 121.55 90.2265C122.014 89.7614 122.54 89.3687 123.104 89.0403H107.945C106.628 89.0403 105.335 89.4463 104.25 90.1763C104.267 90.1938 104.287 90.2086 104.304 90.2254C105.73 91.6524 106.547 93.6251 106.547 95.6396V125.202C106.547 127.341 105.663 129.275 104.245 130.665C105.3 131.381 106.574 131.801 107.945 131.801C111.59 131.801 114.544 128.846 114.544 125.202Z" fill="#105AF6" fill-opacity="0.62"/>
<path d="M135.207 52.7554C141.767 52.7554 147.085 47.4376 147.085 40.8777C147.085 34.3178 141.767 29 135.207 29C128.647 29 123.329 34.3178 123.329 40.8777C123.329 47.4376 128.647 52.7554 135.207 52.7554Z" fill="#105AF6" fill-opacity="0.62"/>
<path d="M52.1619 85.3049V82.2473H41V86.9984H52.1619V85.3049Z" fill="#105AF6" fill-opacity="0.62"/>
<path d="M163.736 82.2473H82.8276V86.9984H163.736V82.2473Z" fill="#105AF6" fill-opacity="0.62"/>
<path d="M88.9478 130.88V103.294H59.8169C58.5795 103.294 57.4134 102.992 56.3782 102.468V130.879C56.3782 132.046 57.3236 132.991 58.4898 132.991H86.8363C88.0024 132.991 88.9478 132.046 88.9478 130.88Z" fill="#105AF6" fill-opacity="0.62"/>
<path d="M71.3215 29.0882C64.7629 29.0882 59.4448 34.4062 59.4448 40.9659C59.4448 43.6877 60.3623 46.1942 61.9017 48.197H77.69C77.9313 48.197 78.1714 48.2155 78.4233 48.2519C78.6371 48.2282 78.8245 48.2155 79.0082 48.2155H79.0958C79.592 48.2155 80.0962 48.2794 80.5897 48.3902C82.2209 46.3563 83.1991 43.7759 83.1991 40.9659C83.1991 34.4062 77.8811 29.0882 71.3215 29.0882Z" fill="#105AF6" fill-opacity="0.62"/>
<path d="M52.1614 69.5747C51.1262 68.7733 50.6886 68.0823 50.4701 67.5359C50.4695 67.5349 50.469 67.5344 50.4685 67.5333C50.3582 67.2451 50.308 66.9605 50.2853 66.6544C50.279 66.572 50.2637 66.496 50.2637 66.4089C50.2584 65.6788 50.506 64.7106 51.0687 63.6496C51.5771 62.6682 52.3515 61.6462 53.2172 60.7387V95.6385C53.2172 99.2831 56.1714 102.237 59.816 102.237H92.2922V125.201C92.2922 128.845 95.2463 131.8 98.8909 131.8C102.536 131.8 105.49 128.845 105.49 125.201V95.6385C105.49 93.9012 104.786 92.2014 103.558 90.9719C102.329 89.7446 100.628 89.0398 98.8909 89.0398H81.7712V77.4208C83.556 79.2004 85.6739 79.9605 87.5422 80.4304C89.6691 80.9387 91.6682 81.0359 93.2065 81.0406C94.777 81.0396 95.8565 80.9229 95.9674 80.9107C98.2875 80.6563 99.9599 78.57 99.7049 76.2526C99.4494 73.9335 97.3621 72.2601 95.0436 72.5161C94.9486 72.5256 94.2063 72.5943 93.2065 72.5943C92.0958 72.5974 90.6515 72.4971 89.5218 72.2189C88.3609 71.9624 87.7032 71.4799 87.7011 71.416C86.9567 70.5085 86.3914 69.0922 86.073 67.2514C85.5742 64.4931 85.7019 61.0908 85.571 58.0069C85.4744 56.4374 85.3978 54.9445 84.6979 53.1824C84.3352 52.314 83.735 51.3026 82.6802 50.4891C81.6376 49.664 80.2065 49.2485 79.0098 49.2702C78.8044 49.2702 78.6043 49.2897 78.4074 49.3177C78.1757 49.2765 77.9371 49.2517 77.6921 49.2517H57.2974C56.978 49.2517 56.6686 49.2918 56.3693 49.362C54.7444 49.5848 53.4368 50.2035 52.0865 50.9468C49.684 52.3409 47.3201 54.3802 45.3621 56.9505C43.4401 59.5135 41.8463 62.6677 41.8184 66.4073C41.8184 66.6153 41.8347 66.8275 41.8458 67.0381C41.9049 68.161 42.1245 69.3118 42.5432 70.4315C42.5616 70.4858 42.5759 70.5413 42.5975 70.5956V70.5946C43.6544 73.3359 45.8167 75.6972 48.7665 77.4747C49.7922 78.096 50.9256 78.6587 52.162 79.1734L52.1614 69.5747Z" fill="#105AF6" fill-opacity="0.62"/>
<path d="M106.665 81.7296L107.763 80.5988L108.498 79.8418C109.134 80.4188 109.949 80.8105 110.869 80.9118C110.98 80.924 112.06 81.0406 113.63 81.0417C115.168 81.0364 117.167 80.9398 119.294 80.4315C121.162 79.9611 123.28 79.2015 125.065 77.4219V80.6637H132.98L135.629 61.1431C136.314 61.3997 137.035 61.5338 137.754 61.5333H137.755C137.755 61.5333 137.757 61.5333 137.758 61.5333C138.478 61.5333 139.198 61.3992 139.881 61.1426L141.62 73.9563C142.39 73.0678 143.424 72.4634 144.595 72.2369C149.217 71.3469 151.791 70.1797 153.134 69.3567C153.311 69.2485 153.47 69.144 153.619 69.041V67.4895V60.7393C154.485 61.6468 155.259 62.6682 155.768 63.6501C156.33 64.7112 156.578 65.6794 156.573 66.4094C156.572 66.4965 156.557 66.5726 156.551 66.6549C156.528 66.9611 156.478 67.2451 156.367 67.5339C156.367 67.5344 156.366 67.5355 156.366 67.5365C156.311 67.6722 156.238 67.8195 156.153 67.972C155.796 68.6034 155.121 69.3752 153.687 70.2573C151.919 71.3379 149.031 72.4576 144.796 73.2732C142.507 73.7155 141.009 75.9311 141.453 78.2222C141.843 80.2409 143.612 81.6424 145.594 81.6424C145.861 81.6424 146.131 81.6171 146.402 81.5648C151.31 80.6099 155.104 79.2717 158.07 77.4768C159.599 76.5551 160.911 75.4734 161.974 74.2667C162.959 73.1454 163.729 71.917 164.239 70.5967V70.5978C164.259 70.5434 164.274 70.4885 164.293 70.4336C164.712 69.3139 164.932 68.1631 164.99 67.0403C165.002 66.8297 165.018 66.6174 165.017 66.4094C164.99 62.6698 163.397 59.5156 161.475 56.9527C159.517 54.3824 157.152 52.3431 154.75 50.9489C153.399 50.2056 152.092 49.5869 150.467 49.3642C150.169 49.294 149.859 49.2538 149.539 49.2538H145.049C142.675 52.0396 139.145 53.8112 135.207 53.8112C131.457 53.8112 128.075 52.2048 125.71 49.6455C125.153 49.8477 124.617 50.127 124.158 50.4907C123.103 51.3042 122.503 52.3156 122.14 53.184C121.44 54.9462 121.363 56.4391 121.267 58.0085C121.136 61.0925 121.264 64.4948 120.765 67.253C120.446 69.0933 119.881 70.5102 119.137 71.4176C119.135 71.4815 118.477 71.964 117.316 72.2205C116.8 72.3478 116.219 72.4359 115.634 72.4956L116.852 71.2408L118.183 69.8709L116.668 68.3996L113.619 71.539L112.616 72.5721C112.157 72.551 111.852 72.5225 111.794 72.5172C109.475 72.2617 107.388 73.9346 107.132 76.2537C107.064 76.8713 107.137 77.4715 107.319 78.0258L106.511 78.8583L104.899 80.5175L105.049 80.6632L106.414 81.9887L106.665 81.7296ZM135.749 54.7134H137.756H139.761L140.764 58.6726L140.612 58.9133C139.786 59.6027 138.772 59.948 137.755 59.949C136.737 59.948 135.726 59.6033 134.901 58.9154L134.746 58.6726L135.749 54.7134Z" fill="#105AF6" fill-opacity="0.62"/>
<defs>
<filter id="filter0_d" x="0" y="0" width="200" height="200" filterUnits="userSpaceOnUse" color-interpolation-filters="sRGB">
<feFlood flood-opacity="0" result="BackgroundImageFix"/>
<feColorMatrix in="SourceAlpha" type="matrix" values="0 0 0 0 0 0 0 0 0 0 0 0 0 0 0 0 0 0 127 0"/>
<feOffset dy="20"/>
<feGaussianBlur stdDeviation="10"/>
<feColorMatrix type="matrix" values="0 0 0 0 0 0 0 0 0 0 0 0 0 0 0 0 0 0 0.15 0"/>
<feBlend mode="normal" in2="BackgroundImageFix" result="effect1_dropShadow"/>
<feBlend mode="normal" in="SourceGraphic" in2="effect1_dropShadow" result="shape"/>
</filter>
</defs>
</svg>
