<svg width="200" height="200" viewBox="0 0 200 200" fill="none" xmlns="http://www.w3.org/2000/svg">
<g filter="url(#filter0_d)">
<rect x="20" width="160" height="160" rx="7" fill="white"/>
</g>
<path d="M92.9721 111.884H84.6824V113.173H92.9721V111.884Z" fill="#105AF6" fill-opacity="0.67"/>
<path d="M153.983 53.5575V41.7693L171.334 31.4594L180.34 26.1079L179.682 25.0003L171.334 29.9608L153.162 40.7578H113.906H47.5993L21.0809 25L20.4219 26.1077L46.7787 41.769V112.162L20.4224 127.823L21.0803 128.931L47.5993 113.173H56.7629V111.884H48.0673V42.0469H113.906H152.694V53.5575L152.694 111.884H147.694V113.173H153.162L179.682 128.931L180.34 127.823L153.983 112.162V53.5575Z" fill="#105AF6" fill-opacity="0.67"/>
<path d="M116.105 99.6485C116.105 96.4458 113.509 93.8499 110.306 93.8499C107.104 93.8499 104.507 96.4458 104.507 99.6485C104.507 101.63 105.502 103.379 107.019 104.425H113.593C115.11 103.379 116.105 101.631 116.105 99.6485Z" fill="#105AF6" fill-opacity="0.67"/>
<path d="M79.8767 88.3347C80.9993 88.2002 82.5736 87.9564 84.4099 87.518C88.047 86.6449 92.7276 85.0153 96.9207 81.8532C97.8286 81.1666 98.009 79.8739 97.323 78.9657C96.6364 78.0573 95.3437 77.8769 94.4353 78.5632C90.8968 81.2424 86.7291 82.7271 83.4507 83.5077C81.8131 83.8994 80.4019 84.1177 79.4117 84.2378C78.9169 84.2973 78.5272 84.3327 78.2677 84.3525C78.1479 84.3615 78.0592 84.3672 77.9969 84.3708C77.9595 84.3687 77.9229 84.3654 77.885 84.3654H68.3008C68.2199 84.3553 68.0944 84.3435 67.93 84.3435C67.1976 84.3236 65.5113 84.6283 64.0135 86.1957C62.7007 87.5554 61.56 89.6998 60.8418 93.1277C60.7371 93.6264 60.6415 94.1521 60.5554 94.7067C60.5549 94.7111 60.5549 94.7152 60.5544 94.7196C60.2408 96.7576 60.0575 99.1951 60.0575 102.133C60.0575 103.641 60.1055 105.283 60.2106 107.07C60.2745 108.166 61.183 109.011 62.2667 109.011C62.3074 109.011 62.3481 109.01 62.3896 109.007C63.5261 108.941 64.3933 107.965 64.3271 106.828C64.2258 105.114 64.1807 103.553 64.1812 102.132C64.1807 99.3675 64.3544 97.1347 64.6292 95.3485C64.6302 95.3441 64.6312 95.3402 64.6317 95.3358C64.7127 94.8093 64.8029 94.3261 64.8995 93.8764C65.2026 92.4623 65.5706 91.4116 65.9373 90.641V98.5823L64.7596 99.3802C64.7444 99.6941 64.7325 100.014 64.7227 100.339L65.828 99.5905L70.4522 106.418L61.8108 112.271L57.1861 105.443L59.564 103.833C59.5571 103.522 59.5519 103.214 59.5488 102.91L56.1124 105.237L59.1174 109.674L61.6043 113.346L65.9373 110.411V129.239C65.9373 131 67.3643 132.426 69.1235 132.426C70.8831 132.426 72.3101 131 72.3101 129.239V105.975H73.5046V129.239C73.5046 131 74.9311 132.426 76.6903 132.426C78.4499 132.426 79.8769 131 79.8769 129.239V88.3347H79.8767ZM71.9274 86.4743H72.907H73.886L74.3757 88.4071L74.3012 88.5247C73.8976 88.8612 73.4033 89.0298 72.9065 89.0303C72.4096 89.0298 71.9158 88.8615 71.5127 88.5257L71.4377 88.4071L71.9274 86.4743ZM72.9067 103.097L70.4584 100.004L71.8684 89.613C72.2026 89.7382 72.5544 89.8037 72.9062 89.8034H72.9067C72.9067 89.8034 72.9078 89.8034 72.9083 89.8034C73.2595 89.8034 73.6105 89.738 73.9443 89.6127L75.3548 100.004L72.9067 103.097Z" fill="#105AF6" fill-opacity="0.67"/>
<path d="M72.9068 82.8966C76.1092 82.8966 78.7054 80.3005 78.7054 77.098C78.7054 73.8956 76.1092 71.2994 72.9068 71.2994C69.7043 71.2994 67.1082 73.8956 67.1082 77.098C67.1082 80.3005 69.7043 82.8966 72.9068 82.8966Z" fill="#105AF6" fill-opacity="0.67"/>
<path d="M65.2575 102.07L64.835 102.365L67.6684 106.426L68.0909 106.131L65.2575 102.07Z" fill="#105AF6" fill-opacity="0.67"/>
<path d="M66.2851 107.35L64.7615 105.169C64.7746 105.487 64.7896 105.809 64.8063 106.134L65.8624 107.646L66.2851 107.35Z" fill="#105AF6" fill-opacity="0.67"/>
<path d="M121.212 90.7531H142.943V90.1083V58.1534H122.501H121.212H100.769V90.7529H121.212V90.7531ZM141.654 59.4422V89.4638H122.501V59.4422H141.654ZM102.058 89.464V59.4425H121.211L121.212 89.464H102.058V89.464Z" fill="#105AF6" fill-opacity="0.67"/>
<path d="M137.909 67.8248L125.79 79.943L126.246 80.3986L138.364 68.2804L137.909 67.8248Z" fill="#105AF6" fill-opacity="0.67"/>
<path d="M133.217 69.4657L127.431 75.2515L127.887 75.7071L133.673 69.9213L133.217 69.4657Z" fill="#105AF6" fill-opacity="0.67"/>
<path d="M136.268 72.5149L130.482 78.3009L130.938 78.7565L136.724 72.9705L136.268 72.5149Z" fill="#105AF6" fill-opacity="0.67"/>
<path d="M117.379 67.8264L105.257 79.9415L105.713 80.3972L117.835 68.2821L117.379 67.8264Z" fill="#105AF6" fill-opacity="0.67"/>
<path d="M112.685 69.4651L106.9 75.2507L107.355 75.7063L113.141 69.9207L112.685 69.4651Z" fill="#105AF6" fill-opacity="0.67"/>
<path d="M115.736 72.5118L109.95 78.2978L110.406 78.7534L116.192 72.9674L115.736 72.5118Z" fill="#105AF6" fill-opacity="0.67"/>
<path d="M139.734 102.534C140.427 99.5536 138.575 96.5759 135.595 95.8817C132.615 95.1881 129.637 97.0414 128.943 100.021C128.365 102.501 129.554 104.979 131.687 106.141C132.454 106.019 133.38 105.917 134.337 105.913C135.295 105.917 136.221 106.019 136.989 106.141C138.327 105.411 139.361 104.135 139.734 102.534Z" fill="#105AF6" fill-opacity="0.67"/>
<path d="M127.664 112.602L123.171 135.724H128.755V150.292C128.755 151.716 129.909 152.87 131.332 152.87C132.755 152.87 133.909 151.716 133.909 150.292V135.724H134.768V150.292C134.768 151.716 135.922 152.87 137.345 152.87C138.768 152.87 139.923 151.716 139.923 150.292V135.724H145.507L141.015 112.609C141.056 112.659 141.096 112.705 141.138 112.758C142.869 114.971 144.944 119.24 146.004 127.287C146.125 128.204 146.967 128.85 147.884 128.729C148.801 128.608 149.447 127.767 149.326 126.85C148.138 117.845 145.693 112.902 143.338 110.157C141.164 107.611 139.072 107.06 138.513 106.971C138.033 106.852 136.263 106.436 134.339 106.429C132.415 106.435 130.645 106.852 130.165 106.971C129.606 107.06 127.515 107.611 125.341 110.157C124.406 111.246 123.458 112.682 122.58 114.579C122.053 111.6 121.226 109.53 120.247 108.035C119.401 106.75 118.41 105.926 117.495 105.469C116.581 105.008 115.779 104.917 115.321 104.918C115.156 104.918 115.031 104.93 114.949 104.94H105.665C105.584 104.93 105.458 104.918 105.291 104.918C104.834 104.917 104.031 105.009 103.117 105.469C101.731 106.157 100.236 107.661 99.1912 110.325C98.1327 113 97.4219 116.867 97.4183 122.707C97.4183 124.216 97.4668 125.858 97.5714 127.644C97.6358 128.74 98.5448 129.586 99.628 129.586C99.6687 129.586 99.7094 129.584 99.7504 129.582C100.887 129.515 101.755 128.54 101.688 127.403C101.588 125.689 101.542 124.128 101.542 122.706C101.533 116.465 102.443 112.959 103.337 111.13V149.814C103.337 151.574 104.764 153 106.523 153C108.283 153 109.71 151.574 109.71 149.814V126.549H110.904V149.814C110.904 151.574 112.331 153 114.09 153C115.85 153 117.277 151.574 117.277 149.814V111.142C117.43 111.455 117.584 111.815 117.736 112.234C118.462 114.247 119.073 117.551 119.071 122.707C119.071 124.128 119.025 125.689 118.925 127.404C118.859 128.54 119.727 129.516 120.864 129.582C120.905 129.584 120.945 129.585 120.986 129.585C122.07 129.585 122.978 128.74 123.042 127.644C123.115 126.393 123.159 125.219 123.179 124.106C123.341 123.246 123.515 122.438 123.699 121.682C124.258 119.382 124.908 117.543 125.578 116.077C126.277 114.55 126.998 113.424 127.664 112.602Z" fill="#105AF6" fill-opacity="0.67"/>
<defs>
<filter id="filter0_d" x="0" y="0" width="200" height="200" filterUnits="userSpaceOnUse" color-interpolation-filters="sRGB">
<feFlood flood-opacity="0" result="BackgroundImageFix"/>
<feColorMatrix in="SourceAlpha" type="matrix" values="0 0 0 0 0 0 0 0 0 0 0 0 0 0 0 0 0 0 127 0"/>
<feOffset dy="20"/>
<feGaussianBlur stdDeviation="10"/>
<feColorMatrix type="matrix" values="0 0 0 0 0 0 0 0 0 0 0 0 0 0 0 0 0 0 0.15 0"/>
<feBlend mode="normal" in2="BackgroundImageFix" result="effect1_dropShadow"/>
<feBlend mode="normal" in="SourceGraphic" in2="effect1_dropShadow" result="shape"/>
</filter>
</defs>
</svg>
